<?xml version="1.0" encoding="UTF-8" standalone="no"?>
<svg
   role="img"
   viewBox="0 0 24 24"
   version="1.1"
   id="svg4683"
   sodipodi:docname="nixos.svg"
   inkscape:version="1.2.1 (9c6d41e410, 2022-07-14)"
   xmlns:inkscape="http://www.inkscape.org/namespaces/inkscape"
   xmlns:sodipodi="http://sodipodi.sourceforge.net/DTD/sodipodi-0.dtd"
   xmlns="http://www.w3.org/2000/svg"
   xmlns:svg="http://www.w3.org/2000/svg"
   xmlns:rdf="http://www.w3.org/1999/02/22-rdf-syntax-ns#"
   xmlns:cc="http://creativecommons.org/ns#"
   xmlns:dc="http://purl.org/dc/elements/1.1/">
  <defs
     id="defs4687" />
  <sodipodi:namedview
     id="namedview4685"
     pagecolor="#ffffff"
     bordercolor="#000000"
     borderopacity="0.25"
     inkscape:showpageshadow="2"
     inkscape:pageopacity="0.0"
     inkscape:pagecheckerboard="0"
     inkscape:deskcolor="#d1d1d1"
     showgrid="false"
     inkscape:zoom="9.8333333"
     inkscape:cx="-7.3220339"
     inkscape:cy="12.050847"
     inkscape:window-width="1080"
     inkscape:window-height="688"
     inkscape:window-x="0"
     inkscape:window-y="0"
     inkscape:window-maximized="1"
     inkscape:current-layer="svg4683" />
  <title
     id="title4679">NixOS icon</title>
  <path
     d="M 8.2375471,3.5745508 7.1334195,3.5761698 6.5926883,4.511926 7.8530452,6.7080392 5.3137135,6.7015633 4.2452029,8.5957413 H 13.707998 L 12.612775,6.7080392 10.028921,6.7031823 8.2367376,3.5745508 Z m 4.9985259,0 -2.175067,0.020237 4.732207,8.1975812 1.085509,-1.8941779 -1.287069,-2.238206 1.81323,-3.1164893 -0.552873,-0.9568027 h -1.081463 l -1.27088,2.1896372 -1.262785,-2.2017795 z m 5.574873,3.3957592 -4.732207,8.195962 2.182352,-0.0065 1.295974,-2.234159 3.604604,0.01295 0.552064,-0.957613 -0.539112,-0.936565 -2.533666,-0.0065 1.274118,-2.1953041 -1.104937,-1.872322 z m -8.8896852,1.8609893 -2.182352,0.00648 -1.2959739,2.2341587 -3.6046044,-0.01295 -0.5520638,0.956803 0.5391122,0.936566 2.5336653,0.0065 -1.2749274,2.193684 1.1049371,1.873941 z m -1.7015222,3.3706657 -0.00486,0.0081 -0.00162,-0.0032 -1.0863192,1.894178 1.2870697,2.238206 -1.8132302,3.116489 0.5536828,0.956803 H 8.235924 l 0.00324,-0.0049 h 8.094e-4 l 1.2684517,-2.183971 1.2611669,2.201779 2.175876,-0.02105 -0.0032,-0.0049 h 0.0081 z m 2.0641684,3.181247 1.096033,1.887703 2.583853,0.0049 1.792993,3.128632 1.103318,-0.0016 0.540732,-0.935756 -1.260357,-2.196113 2.539331,0.0065 1.068511,-1.894178 h -9.463605 z"
     id="path4681"
     style="stroke-width:0.809478;fill:#ffffff" />
  <metadata
     id="metadata5169">
    <rdf:RDF>
      <cc:Work
         rdf:about="">
        <dc:title>NixOS icon</dc:title>
      </cc:Work>
    </rdf:RDF>
  </metadata>
</svg>
