<svg width="60" height="60" version="1.1" viewBox="0 0 60 60" xmlns="http://www.w3.org/2000/svg">
 <defs>
  <filter id="a" x="-.12" y="-.12" width="1.24" height="1.24" color-interpolation-filters="sRGB">
   <feGaussianBlur stdDeviation="2.3999995"/>
  </filter>
 </defs>
 <g transform="translate(0 -992.36)">
  <rect x="6" y="998.36" width="48" height="48" rx="8" ry="8" filter="url(#a)" opacity=".15"/>
  <rect x="7" y="997.36" width="46" height="46" rx="7" ry="7" fill="none" opacity=".75" stroke="#000" stroke-linecap="round" stroke-width="2"/>
  <rect x="7" y="997.36" width="46" height="46" rx="7" ry="7" fill="#323232"/>
  <path transform="translate(0,992.36)" d="m14 5c-3.878 0-7 3.122-7 7v32c0 3.878 3.122 7 7 7h32c3.878 0 7-3.122 7-7v-32c0-3.878-3.122-7-7-7h-32zm0 1h32c3.324 0 6 2.676 6 6v32c0 3.324-2.676 6-6 6h-32c-3.324 0-6-2.676-6-6v-32c0-3.324 2.676-6 6-6z" fill="#fff" opacity=".1"/>
 </g>
</svg>
